<mxfile host="app.diagrams.net" modified="2021-03-09T09:13:48.369Z" agent="5.0 (Macintosh; Intel Mac OS X 10_15_7) AppleWebKit/537.36 (KHTML, like Gecko) Chrome/88.0.4324.182 Safari/537.36" etag="CJiDL_5jsWcLJFx_3ron" version="14.4.4" type="github">
  <diagram id="Nw6cjXgeHLfIa4OHt20m" name="Page-1">
    <mxGraphModel dx="450" dy="280" grid="0" gridSize="10" guides="1" tooltips="1" connect="1" arrows="1" fold="1" page="1" pageScale="1" pageWidth="1654" pageHeight="1169" math="1" shadow="0">
      <root>
        <mxCell id="0" />
        <mxCell id="1" parent="0" />
        <mxCell id="oZDuCrrVwL2XrLM-mJop-1" value="&lt;font style=&quot;font-size: 18px&quot;&gt;&amp;nbsp;$$\hat{y}_{\mathrm{marked}&lt;br&gt;i}$$&lt;/font&gt;" style="text;html=1;align=center;verticalAlign=middle;resizable=0;points=[];autosize=1;" vertex="1" parent="1">
          <mxGeometry x="77" y="156" width="250" height="40" as="geometry" />
        </mxCell>
        <mxCell id="oZDuCrrVwL2XrLM-mJop-5" value="&lt;font style=&quot;font-size: 12px&quot; face=&quot;Times New Roman&quot;&gt;clean&lt;/font&gt;" style="text;html=1;align=center;verticalAlign=middle;resizable=0;points=[];autosize=1;" vertex="1" parent="1">
          <mxGeometry x="240" y="162" width="40" height="20" as="geometry" />
        </mxCell>
        <mxCell id="oZDuCrrVwL2XrLM-mJop-6" value="&lt;font style=&quot;font-size: 12px&quot; face=&quot;Times New Roman&quot;&gt;noisy&lt;/font&gt;" style="text;html=1;align=center;verticalAlign=middle;resizable=0;points=[];autosize=1;" vertex="1" parent="1">
          <mxGeometry x="240" y="197" width="40" height="20" as="geometry" />
        </mxCell>
        <mxCell id="oZDuCrrVwL2XrLM-mJop-4" value="" style="endArrow=classic;html=1;" edge="1" parent="1">
          <mxGeometry width="50" height="50" relative="1" as="geometry">
            <mxPoint x="240" y="192" as="sourcePoint" />
            <mxPoint x="300" y="212" as="targetPoint" />
          </mxGeometry>
        </mxCell>
        <mxCell id="oZDuCrrVwL2XrLM-mJop-7" value="&lt;font face=&quot;Times New Roman&quot;&gt;&lt;b&gt;&lt;font style=&quot;font-size: 14px&quot;&gt;Given Label&lt;/font&gt;&lt;/b&gt;&lt;/font&gt;" style="rounded=1;whiteSpace=wrap;html=1;fillColor=#dae8fc;strokeColor=#6c8ebf;" vertex="1" parent="1">
          <mxGeometry x="304" y="156" width="86" height="23" as="geometry" />
        </mxCell>
        <mxCell id="oZDuCrrVwL2XrLM-mJop-8" value="&lt;font style=&quot;font-size: 12px&quot; face=&quot;Times New Roman&quot;&gt;Keep&lt;/font&gt;" style="text;html=1;align=center;verticalAlign=middle;resizable=0;points=[];autosize=1;" vertex="1" parent="1">
          <mxGeometry x="327" y="136" width="40" height="20" as="geometry" />
        </mxCell>
        <mxCell id="oZDuCrrVwL2XrLM-mJop-9" value="&lt;font face=&quot;Times New Roman&quot;&gt;&lt;b&gt;&lt;font style=&quot;font-size: 14px&quot;&gt;Pseudo Label&lt;/font&gt;&lt;/b&gt;&lt;/font&gt;" style="rounded=1;whiteSpace=wrap;html=1;fillColor=#f8cecc;strokeColor=#b85450;" vertex="1" parent="1">
          <mxGeometry x="304" y="204" width="86" height="23" as="geometry" />
        </mxCell>
        <mxCell id="oZDuCrrVwL2XrLM-mJop-10" value="&lt;font style=&quot;font-size: 12px&quot; face=&quot;Times New Roman&quot;&gt;Replaced by&lt;/font&gt;" style="text;html=1;align=center;verticalAlign=middle;resizable=0;points=[];autosize=1;" vertex="1" parent="1">
          <mxGeometry x="307" y="184" width="80" height="20" as="geometry" />
        </mxCell>
        <mxCell id="oZDuCrrVwL2XrLM-mJop-3" value="" style="endArrow=classic;html=1;entryX=0.907;entryY=0.5;entryDx=0;entryDy=0;entryPerimeter=0;" edge="1" parent="1">
          <mxGeometry width="50" height="50" relative="1" as="geometry">
            <mxPoint x="240" y="191" as="sourcePoint" />
            <mxPoint x="299.89" y="170" as="targetPoint" />
          </mxGeometry>
        </mxCell>
      </root>
    </mxGraphModel>
  </diagram>
</mxfile>
